<svg xmlns="http://www.w3.org/2000/svg" xmlns:xlink="http://www.w3.org/1999/xlink" width="150" zoomAndPan="magnify" viewBox="0 0 112.5 112.499997" height="150" preserveAspectRatio="xMidYMid meet" version="1.0"><defs><clipPath id="c20a3d16c3"><path d="M 36 45 L 107.773438 45 L 107.773438 89 L 36 89 Z M 36 45 " clip-rule="nonzero"/></clipPath></defs><path fill="#40b93c" d="M 38.570312 40.863281 C 38.570312 40.863281 38.171875 59.679688 58.726562 74.464844 C 55.117188 64.222656 59.25 55.488281 47.347656 43.976562 C 41.265625 38.09375 38.429688 33.101562 38.429688 33.101562 C 38.429688 33.101562 15.453125 70.277344 57.359375 76.324219 C 57.359375 76.324219 36.9375 66.644531 38.570312 40.863281 " fill-opacity="1" fill-rule="nonzero"/><g clip-path="url(#c20a3d16c3)"><path fill="#f68712" d="M 36.90625 84.96875 C 36.90625 84.96875 95.050781 84.859375 52.5 45.078125 C 52.5 45.078125 68.308594 50.238281 76.402344 67.34375 C 76.402344 67.34375 80.476562 62.199219 87.929688 59.125 C 99.628906 54.292969 107.777344 55.4375 107.777344 55.4375 C 88.390625 59.976562 89.4375 69.3125 79.589844 78.191406 C 60.484375 95.414062 36.90625 84.96875 36.90625 84.96875 " fill-opacity="1" fill-rule="nonzero"/></g><path fill="#f68712" d="M 84.945312 54.710938 C 84.945312 58.515625 82.019531 61.597656 78.414062 61.597656 C 74.804688 61.597656 71.882812 58.515625 71.882812 54.710938 C 71.882812 50.910156 74.804688 47.828125 78.414062 47.828125 C 82.019531 47.828125 84.945312 50.910156 84.945312 54.710938 " fill-opacity="1" fill-rule="nonzero"/><path fill="#40b93c" d="M 28.4375 81.980469 C 11.710938 68.808594 8.164062 45.066406 19.8125 27.648438 C 19.113281 28.410156 18.441406 29.203125 17.792969 30.027344 C 3.992188 47.609375 7.03125 73.066406 24.582031 86.886719 C 42.132812 100.714844 67.550781 97.667969 81.351562 80.085938 C 82 79.261719 82.613281 78.417969 83.1875 77.558594 C 69.035156 93.007812 45.164062 95.15625 28.4375 81.980469 " fill-opacity="1" fill-rule="nonzero"/><path fill="#80cc28" d="M 27.777344 33.046875 C 38.710938 17.511719 59.652344 13.242188 75.679688 22.820312 C 74.972656 22.234375 74.234375 21.667969 73.472656 21.128906 C 57.195312 9.640625 34.707031 13.539062 23.234375 29.839844 C 11.765625 46.140625 15.65625 68.667969 31.933594 80.15625 C 32.695312 80.695312 33.476562 81.203125 34.265625 81.671875 C 19.871094 69.773438 16.847656 48.582031 27.777344 33.046875 " fill-opacity="1" fill-rule="nonzero"/></svg>